<svg width="16" height="15" viewBox="0 0 16 15" fill="none" xmlns="http://www.w3.org/2000/svg">
<g clip-path="url(#clip0_1374_89)">
<path d="M13.333 5.56009C13.0869 5.56009 12.8561 5.62063 12.6579 5.72613C12.5833 5.12542 12.0176 4.65723 11.333 4.65723C11.0075 4.65723 10.7083 4.76363 10.4759 4.94084C10.2425 4.59081 9.8177 4.35627 9.33301 4.35627C9.09051 4.35627 8.86263 4.41504 8.66635 4.51791V1.34676C8.66632 0.682825 8.06835 0.142944 7.33301 0.142944C6.59766 0.142944 5.99966 0.682825 5.99966 1.34676V9.40135C5.99966 9.553 5.88898 9.63087 5.84144 9.65734C5.79391 9.6838 5.66598 9.73817 5.51723 9.67057L3.3766 8.70423C3.1816 8.61606 2.9632 8.56962 2.7451 8.56962C1.96645 8.56962 1.33301 9.14155 1.33301 9.84457V10.0744C1.33301 10.1578 1.37141 10.2375 1.43879 10.2945L5.28613 13.5365C6.09145 14.2148 7.1416 14.5887 8.24282 14.5887H10.333C12.7223 14.5887 14.6663 12.8335 14.6663 10.6763V6.76391C14.6663 6.09997 14.0684 5.56009 13.333 5.56009ZM13.9997 10.6763C13.9997 12.5017 12.3548 13.9867 10.333 13.9867H8.24285C7.3112 13.9867 6.42254 13.6705 5.74123 13.0962L1.99966 9.9436V9.84457C1.99966 9.47335 2.33398 9.17152 2.7451 9.17152C2.86001 9.17152 2.97557 9.1962 3.07845 9.24264L5.21907 10.209C5.53126 10.3503 5.89516 10.3348 6.19204 10.1696C6.48891 10.0038 6.66632 9.7167 6.66632 9.40135V1.34676C6.66632 1.01496 6.96548 0.744868 7.33298 0.744868C7.70048 0.744868 7.99963 1.01496 7.99963 1.34676V5.86105C7.99963 6.0274 8.14873 6.16201 8.33298 6.16201C8.51723 6.16201 8.66632 6.0274 8.66632 5.86105V5.56009C8.66632 5.22829 8.96548 4.95819 9.33298 4.95819C9.70048 4.95819 9.99963 5.22829 9.99963 5.56009V5.86105C9.99963 5.86164 9.99963 5.86223 9.99963 5.86283V5.86311C10.0009 6.02828 10.1497 6.16201 10.333 6.16201C10.5172 6.16201 10.6663 6.0274 10.6663 5.86105V5.85634C10.6689 5.52688 10.9678 5.25913 11.333 5.25913C11.7005 5.25913 11.9996 5.52922 11.9996 5.86102V6.76388C11.9996 6.93023 12.1487 7.06484 12.333 7.06484C12.5172 7.06484 12.6663 6.93023 12.6663 6.76388C12.6663 6.43208 12.9655 6.16198 13.333 6.16198C13.7005 6.16198 13.9997 6.43208 13.9997 6.76391V10.6763Z" fill="white"/>
</g>
<defs>
<clipPath id="clip0_1374_89">
<rect width="16" height="14.4457" fill="white" transform="translate(0 0.142944)"/>
</clipPath>
</defs>
</svg>
